<?xml version="1.0" encoding="utf-8"?>
<!-- Generator: Adobe Illustrator 19.0.1, SVG Export Plug-In . SVG Version: 6.00 Build 0)  -->
<svg version="1.1" id="Layer_1" xmlns="http://www.w3.org/2000/svg" xmlns:xlink="http://www.w3.org/1999/xlink" x="0px" y="0px"
	 viewBox="-455 257 48 48" style="enable-background:new -455 257 48 48;" xml:space="preserve">
<g id="surface1_1_">
	<path d="M-411,268.9c-1.5,0.6-2.9,1.1-4.5,1.3c1.6-1,2.9-2.6,3.6-4.4c-1.6,1-3.2,1.6-5,1.9c-1.6-1.6-3.7-2.6-6-2.6
		c-4.4,0-7.9,3.6-7.9,7.9c0,0.7,0,1.3,0.2,1.8c-6.6-0.3-12.5-3.4-16.4-8.3c-0.8,1.1-1.1,2.6-1.1,4c0,2.8,1.5,5.2,3.6,6.6
		c-1.3-0.2-2.6-0.5-3.6-1c0,0,0,0,0,0.2c0,3.9,2.8,7.1,6.3,7.8c-0.6,0.2-1.3,0.3-2.1,0.3c-0.5,0-1,0-1.5-0.2c1,3.2,3.9,5.5,7.5,5.5
		c-2.8,2.1-6.2,3.4-9.9,3.4c-0.6,0-1.3,0-1.9-0.2c3.6,2.3,7.8,3.6,12.1,3.6c14.7,0,22.7-12.1,22.7-22.7c0-0.3,0-0.6,0-1
		C-413.4,272-412.1,270.6-411,268.9"/>
</g>
</svg>
